<svg version="1.1" viewBox="0.0 0.0 402.01049868766404 193.7795275590551" fill="none" stroke="none" stroke-linecap="square" stroke-miterlimit="10" xmlns:xlink="http://www.w3.org/1999/xlink" xmlns="http://www.w3.org/2000/svg"><clipPath id="p.0"><path d="m0 0l402.0105 0l0 193.77953l-402.0105 0l0 -193.77953z" clip-rule="nonzero"/></clipPath><g clip-path="url(#p.0)"><path fill="#000000" fill-opacity="0.0" d="m0 0l402.0105 0l0 193.77953l-402.0105 0z" fill-rule="evenodd"/><path fill="#000000" fill-opacity="0.0" d="m0 0l402.4882 0l0 196.44095l-402.4882 0z" fill-rule="evenodd"/><path fill="#ffffff" d="m23.96875 104.17734l34.09375 14.015625l-2.5 7.390625l-41.46875 -17.5625l0 -7.6875l41.46875 -17.5625l2.5 7.390625l-34.09375 14.015625zm65.09711 -38.5q14.015625 0 21.546875 5.328125q7.546875 5.328125 7.546875 15.890625q0 5.765625 -2.078125 9.84375q-2.0625 4.078125 -5.953125 6.625q-3.875 2.546875 -9.453125 3.703125q-5.5625 1.140625 -12.578125 1.140625l-7.390625 0l0 24.671875l-9.3125 0l0 -65.5625q3.9375 -0.96875 8.78125 -1.296875q4.859375 -0.34375 8.890625 -0.34375zm0.765625 8.15625q-5.953125 0 -9.125 0.296875l0 26.109375l7.015625 0q4.796875 0 8.640625 -0.625q3.84375 -0.625 6.484375 -2.109375q2.640625 -1.484375 4.078125 -4.078125q1.4375 -2.59375 1.4375 -6.625q0 -3.84375 -1.5 -6.328125q-1.484375 -2.5 -4.03125 -3.984375q-2.53125 -1.5 -5.890625 -2.078125q-3.359375 -0.578125 -7.109375 -0.578125zm79.102356 57.609375q-3.0625 0.765625 -8.109375 1.625q-5.046875 0.875 -11.671875 0.875q-5.75 0 -9.6875 -1.671875q-3.9375 -1.6875 -6.34375 -4.765625q-2.390625 -3.078125 -3.453125 -7.25q-1.046875 -4.171875 -1.046875 -9.265625l0 -28.03125l8.921875 0l0 26.109375q0 9.125 2.875 13.0625q2.890625 3.9375 9.703125 3.9375q1.4375 0 2.96875 -0.09375q1.546875 -0.109375 2.890625 -0.25q1.34375 -0.140625 2.4375 -0.28125q1.109375 -0.140625 1.59375 -0.34375l0 -42.140625l8.921875 0l0 48.484375zm30.338348 2.390625q-8.25 -0.1875 -11.71875 -3.546875q-3.453125 -3.359375 -3.453125 -10.46875l0 -59.890625l8.9375 -1.546875l0 60.0q0 2.21875 0.375 3.65625q0.390625 1.4375 1.25 2.296875q0.859375 0.859375 2.296875 1.296875q1.453125 0.4375 3.5625 0.71875l-1.25 7.484375zm22.848618 -7.390625q5.46875 0 8.109375 -1.4375q2.640625 -1.4375 2.640625 -4.609375q0 -3.265625 -2.59375 -5.171875q-2.59375 -1.921875 -8.546875 -4.328125q-2.875 -1.15625 -5.515625 -2.34375q-2.640625 -1.203125 -4.5625 -2.828125q-1.921875 -1.640625 -3.078125 -3.9375q-1.140625 -2.3125 -1.140625 -5.671875q0 -6.625 4.890625 -10.515625q4.90625 -3.890625 13.34375 -3.890625q2.109375 0 4.21875 0.25q2.125 0.234375 3.9375 0.578125q1.828125 0.328125 3.21875 0.71875q1.390625 0.375 2.171875 0.671875l-1.640625 7.671875q-1.4375 -0.765625 -4.515625 -1.578125q-3.0625 -0.828125 -7.390625 -0.828125q-3.734375 0 -6.53125 1.5q-2.78125 1.484375 -2.78125 4.65625q0 1.625 0.625 2.875q0.625 1.25 1.921875 2.265625q1.296875 1.0 3.21875 1.875q1.921875 0.859375 4.609375 1.8125q3.546875 1.34375 6.328125 2.640625q2.796875 1.296875 4.75 3.03125q1.96875 1.71875 3.03125 4.171875q1.0625 2.4375 1.0625 6.0q0 6.90625 -5.140625 10.46875q-5.140625 3.546875 -14.640625 3.546875q-6.625 0 -10.375 -1.109375q-3.734375 -1.109375 -5.078125 -1.671875l1.625 -7.6875q1.546875 0.578125 4.90625 1.734375q3.359375 1.140625 8.921875 1.140625zm28.409729 -18.421875q0 -6.625 1.921875 -11.5625q1.921875 -4.953125 5.0937347 -8.21875q3.171875 -3.265625 7.296875 -4.890625q4.125 -1.640625 8.4375 -1.640625q10.09375 0 15.46875 6.296875q5.375 6.28125 5.375 19.140625q0 0.578125 0 1.5q0 0.90625 -0.09375 1.671875l-34.1875 0q0.578125 7.78125 4.515625 11.8125q3.9375 4.03125 12.296875 4.03125q4.703125 0 7.90625 -0.8125q3.21875 -0.828125 4.859375 -1.59375l1.25 7.5q-1.640625 0.859375 -5.71875 1.8125q-4.078125 0.96875 -9.265625 0.96875q-6.53125 0 -11.28125 -1.96875q-4.75 -1.96875 -7.828125 -5.421875q-3.0624847 -3.46875 -4.5624847 -8.21875q-1.484375 -4.75 -1.484375 -10.40625zm34.281235 -4.90625q0.09375 -6.046875 -3.03125 -9.921875q-3.109375 -3.890625 -8.59375 -3.890625q-3.0625 0 -5.421875 1.203125q-2.34375 1.1875 -3.984375 3.109375q-1.625 1.921875 -2.546875 4.421875q-0.90625 2.484375 -1.1875 5.078125l24.765625 0zm21.304626 47.53125l-9.109375 0l32.53125 -92.9375l8.9375 0l-32.359375 92.9375zm35.145233 -60.484375l2.484375 -7.390625l41.484375 17.5625l0 7.6875l-41.484375 17.5625l-2.484375 -7.390625l34.078125 -14.015625l-34.078125 -14.015625z" fill-rule="nonzero"/></g></svg>